<?xml version="1.0" encoding="UTF-8"?>
<svg id="Capa_1" xmlns="http://www.w3.org/2000/svg" version="1.1" viewBox="0 0 800 800">
  <!-- Generator: Adobe Illustrator 30.2.1, SVG Export Plug-In . SVG Version: 2.1.1 Build 1)  -->
  <defs>
    <style>
      .st0 {
        fill: #f4f4f4;
        fill-rule: evenodd;
      }
    </style>
  </defs>
  <g id="Page-1">
    <g id="Dribbble-Light-Preview">
      <g id="icons">
        <path id="behance-_x5B__x23_163_x5D_" class="st0" d="M519.2,224.7h203.5v-58.3h-203.5v58.3ZM619.6,341.7c-45.4,0-79.9,28.1-83.2,80.1h162.9c-11-61.7-38.4-80.1-79.7-80.1h0ZM625.9,582.8c41.9,0,72.7-26.5,79-48.8h88.2c-25.2,80.7-77.2,126-170.7,126s-186.2-84.8-186.2-197.3c0-265,382.4-274.5,363.2,24.7h-263c2.6,60.8,27.6,95.4,89.6,95.4h0ZM229.2,571.1c48.1,0,81.8-18.5,81.8-68.5s-29.8-74.3-79.7-74.3h-120.6v142.7h118.5ZM222.8,350.5c40,0,67.7-18.6,67.7-61.9s-32.2-59.7-76.1-59.7h-103.7v121.6h112.1ZM237,140c94.8,0,160.8,31.3,160.8,128.9s-19.4,84.3-68.4,108.5c62.7,18.6,92.4,67.5,92.4,131.8,0,102-80.9,150.7-177.7,150.7H0V140h237Z"/>
      </g>
    </g>
  </g>
</svg>