<?xml version="1.0" encoding="UTF-8"?>
<svg id="Capa_1" data-name="Capa 1" xmlns="http://www.w3.org/2000/svg" viewBox="0 0 1220.79 335.74">
  <defs>
    <style>
      .cls-1 {
        fill: #f4f4f4;
      }
    </style>
  </defs>
  <path class="cls-1" d="M541.89,220.82h44.17l-5.35,22.87h-44.17l-4.46,19.28h47.91l-5.46,23.45h-76.97l24.97-107.18h77.26l-5.46,23.45h-48.2l-4.24,18.13ZM677.97,182.15c-5.92-2.9-13.22-4.35-21.9-4.35s-16.17,1.43-23.05,4.28c-6.88,2.85-12.62,6.83-17.2,11.94-4.59,5.11-7.66,11.07-9.22,17.88-1.96,8.39-.78,15.02,3.52,19.89,4.3,4.87,10.94,8.31,19.92,10.32l10.28,2.3c3.78.82,6.73,1.73,8.84,2.73,2.11,1.01,3.55,2.12,4.31,3.34.76,1.22.94,2.65.54,4.28-.41,1.78-1.32,3.35-2.73,4.71-1.41,1.37-3.26,2.43-5.54,3.2-2.28.77-4.98,1.15-8.1,1.15-3.74,0-6.81-.58-9.2-1.73-2.39-1.15-4.06-2.85-5.02-5.11-.95-2.25-1.13-5.01-.52-8.27h-27.62c-2.04,8.97-1.67,16.33,1.1,22.08,2.78,5.75,7.46,10.01,14.03,12.77,6.58,2.76,14.52,4.14,23.82,4.14s16.99-1.27,23.78-3.81c6.79-2.54,12.35-6.27,16.69-11.19,4.33-4.92,7.31-10.9,8.94-17.95.94-4.07,1.17-7.83.68-11.26-.49-3.43-1.75-6.53-3.8-9.32-2.04-2.78-4.95-5.19-8.72-7.23-3.77-2.04-8.47-3.7-14.09-5l-8.29-1.87c-3.21-.72-5.77-1.55-7.67-2.48-1.9-.93-3.21-2.04-3.91-3.31-.71-1.27-.86-2.74-.46-4.42.39-1.58,1.18-3,2.37-4.24,1.19-1.25,2.82-2.22,4.91-2.91,2.08-.69,4.61-1.04,7.59-1.04,4.7,0,7.99.97,9.88,2.91,1.88,1.94,2.54,4.66,1.97,8.17h27.91c1.57-7,1.11-13.13-1.39-18.38-2.5-5.25-6.71-9.33-12.63-12.23ZM801.06,179.24h-93.08l-5.46,23.45h32.01l-19.51,83.73h29.06l19.51-83.73h32.01l5.46-23.45ZM875.44,179.24l-15.18,65.24c-.75,3.31-2.26,6.33-4.53,9.06-2.27,2.73-5.01,4.92-8.21,6.55-3.2,1.63-6.6,2.45-10.2,2.45-3.07,0-5.63-.66-7.67-1.98-2.05-1.32-3.44-3.19-4.19-5.61-.75-2.42-.75-5.29,0-8.6l15.59-67.11h-29.06l-15.77,67.69c-1.89,8.15-1.56,15.3,1,21.44,2.56,6.14,7.04,10.9,13.43,14.28,6.39,3.38,14.31,5.07,23.76,5.07s17.18-1.53,24.62-4.6c7.45-3.07,13.72-7.52,18.81-13.34,5.09-5.83,8.58-12.82,10.47-20.97l16.18-69.56h-29.06ZM1000.31,232.9c-2.57,11.13-6.68,20.69-12.32,28.7-5.65,8.01-12.65,14.15-21.02,18.41-8.37,4.27-17.99,6.4-28.88,6.4h-44.74l24.97-107.18h39.71c11.03,0,20.14,2.15,27.33,6.44,7.19,4.29,12.14,10.44,14.84,18.45,2.7,8.01,2.74,17.6.12,28.77ZM972.35,215.39c-.92-4.2-3.07-7.14-6.46-8.85-3.39-1.7-7.88-2.55-13.5-2.55h-10.79l-13.44,57.69h11.08c5.32,0,10.06-.84,14.2-2.52,4.14-1.68,7.69-4.61,10.66-8.81,2.97-4.2,5.3-10.01,7-17.44,1.75-7.48,2.16-13.32,1.25-17.52ZM1024.7,179.24l-24.97,107.18h29.06l24.97-107.18h-29.06ZM1154.73,197.94c3.44,6.62,4.84,14.72,4.19,24.31-.6,8.97-2.6,17.41-5.98,25.32-3.39,7.91-7.93,14.89-13.64,20.93-5.71,6.04-12.38,10.78-20.02,14.21-7.64,3.43-16.04,5.14-25.2,5.14s-16.53-1.71-23.1-5.14c-6.58-3.43-11.58-8.44-14.99-15.03-3.42-6.59-4.81-14.66-4.16-24.21.6-8.97,2.59-17.42,5.95-25.36,3.36-7.94,7.9-14.93,13.6-20.97,5.71-6.04,12.39-10.78,20.05-14.21,7.66-3.43,16.1-5.14,25.31-5.14s16.44,1.7,23,5.11c6.56,3.41,11.55,8.42,14.99,15.03ZM1128.2,211.54c-1.06-2.78-2.79-4.88-5.19-6.29-2.4-1.41-5.47-2.12-9.21-2.12-5.23,0-9.81,1.25-13.74,3.74-3.93,2.49-7.23,5.77-9.9,9.82-2.67,4.05-4.73,8.44-6.17,13.16-1.45,4.72-2.32,9.34-2.62,13.85-.28,4.12.13,7.59,1.21,10.39,1.08,2.81,2.82,4.92,5.22,6.33,2.4,1.41,5.47,2.12,9.21,2.12,5.23,0,9.79-1.23,13.7-3.71,3.91-2.47,7.19-5.73,9.87-9.78,2.67-4.05,4.73-8.45,6.17-13.2,1.45-4.75,2.32-9.38,2.62-13.88.28-4.17-.11-7.65-1.17-10.43ZM547.56,106.58h59.71l-11.63,49.99h10.72l24.97-107.18h-10.72l-11.11,47.62h-59.63l11.04-47.62h-10.72l-24.97,107.18h10.72l11.63-49.99ZM624.34,156.57l64.25-107.18h12.59l14.66,107.18h-10.86l-4.09-31.58h-46.06l-18.62,31.58h-11.87ZM676.96,87.45l-16.54,28.05h39.23l-3.63-28.05c-.44-3.5-.93-8-1.47-13.49-.45-4.57-.88-9.88-1.3-15.92-3.06,5.78-5.84,10.93-8.34,15.42-3.03,5.44-5.68,10.11-7.95,13.99ZM748.22,154.74c5.04,2.42,11.23,3.63,18.57,3.63,7.91,0,14.91-1.33,20.99-3.99,6.08-2.66,11.07-6.29,14.98-10.9,3.91-4.6,6.51-9.78,7.81-15.54,1.07-4.56,1.1-8.45.07-11.69-1.03-3.24-2.75-5.95-5.17-8.13-2.42-2.18-5.17-3.99-8.27-5.43-3.09-1.44-6.19-2.66-9.28-3.67l-10.36-3.17c-3.15-1.01-6.17-2.28-9.06-3.81-2.89-1.53-5.1-3.54-6.61-6.01-1.51-2.47-1.83-5.55-.96-9.24.87-3.74,2.71-7.06,5.49-9.96,2.79-2.9,6.22-5.18,10.31-6.83,4.09-1.65,8.58-2.48,13.47-2.48,6.95,0,12.29,1.69,16.02,5.07,3.73,3.38,5.21,7.97,4.43,13.78h10.5c1.04-5.47.46-10.35-1.75-14.64-2.21-4.29-5.68-7.67-10.43-10.14-4.75-2.47-10.48-3.71-17.2-3.71s-12.97,1.25-18.77,3.74c-5.8,2.49-10.71,5.96-14.73,10.39-4.02,4.44-6.68,9.58-7.98,15.43-1.63,7.1-.55,12.84,3.23,17.23,3.78,4.39,9.48,7.76,17.09,10.11l11.91,3.74c4.18,1.34,7.73,2.83,10.67,4.46,2.93,1.63,5.04,3.62,6.32,5.97,1.28,2.35,1.49,5.3.63,8.85-.95,4.17-2.98,7.82-6.09,10.93-3.11,3.12-6.92,5.55-11.42,7.3-4.51,1.75-9.37,2.63-14.6,2.63-4.65,0-8.73-.73-12.23-2.19-3.5-1.46-6.1-3.63-7.8-6.51-1.7-2.88-2.24-6.43-1.62-10.65h-11.01c-.97,5.8-.33,10.89,1.92,15.25,2.25,4.36,5.89,7.76,10.93,10.18ZM849.47,106.58h59.71l-11.63,49.99h10.72l24.97-107.18h-10.72l-11.11,47.62h-59.63l11.04-47.62h-10.72l-24.97,107.18h10.72l11.63-49.99ZM963.94,156.57h10.79l22.68-97.61h33.88l2.23-9.57h-78.55l-2.23,9.57h33.95l-22.75,97.61ZM1007.75,156.57l64.25-107.18h12.59l14.66,107.18h-10.86l-4.09-31.58h-46.06l-18.62,31.58h-11.87ZM1060.37,87.45l-16.54,28.05h39.23l-3.63-28.05c-.44-3.5-.93-8-1.47-13.49-.45-4.57-.88-9.88-1.3-15.92-3.06,5.78-5.84,10.93-8.34,15.42-3.03,5.44-5.68,10.11-7.95,13.99ZM1133.79,94.32c2.52-6.74,5.91-12.85,10.19-18.34,4.28-5.49,9.31-9.87,15.09-13.13,5.78-3.26,12.17-4.89,19.18-4.89,4.17,0,7.83.64,10.99,1.91,3.15,1.27,5.79,3.06,7.91,5.36,2.12,2.3,3.74,4.96,4.86,7.98,1.11,3.02,1.72,6.28,1.82,9.78h11.08c.27-4.8-.32-9.32-1.79-13.56-1.47-4.24-3.72-7.97-6.77-11.19-3.05-3.21-6.84-5.73-11.4-7.55-4.55-1.82-9.78-2.73-15.68-2.73-8.68,0-16.6,1.91-23.76,5.72-7.16,3.81-13.38,8.94-18.66,15.39-5.28,6.45-9.46,13.68-12.54,21.69-3.08,8.01-4.9,16.23-5.47,24.67-.59,8.73.5,16.28,3.26,22.66,2.76,6.38,6.97,11.29,12.64,14.75,5.67,3.45,12.6,5.18,20.8,5.18,6.33,0,12.33-1.03,18.01-3.09,5.68-2.06,10.85-5.02,15.52-8.88,4.67-3.86,8.66-8.49,11.98-13.88,3.31-5.4,5.77-11.47,7.38-18.24l2.23-9.64h-40.93l-2.22,9.5h30.43c-1.67,6.66-4.4,12.52-8.23,17.55-4.05,5.32-8.91,9.44-14.57,12.34-5.66,2.9-11.83,4.35-18.49,4.35-8.97,0-15.94-2.88-20.93-8.63-4.98-5.75-7.12-13.93-6.41-24.53.47-6.95,1.96-13.8,4.47-20.54ZM1179.13,202.41c-6.78,0-12.3-5.52-12.3-12.3s5.52-12.3,12.3-12.3,12.3,5.52,12.3,12.3-5.52,12.3-12.3,12.3ZM1179.13,180.3c-5.41,0-9.8,4.4-9.8,9.8s4.4,9.8,9.8,9.8,9.8-4.4,9.8-9.8-4.4-9.8-9.8-9.8ZM1178.46,189.11c.69,0,1.19-.14,1.49-.4.3-.25.46-.67.46-1.27s-.16-1-.46-1.26c-.3-.25-.8-.37-1.49-.37h-1.4v3.31h1.4M1177.06,191.39v4.87h-3.32v-12.88h5.07c1.7,0,2.94.29,3.72.86.8.56,1.19,1.46,1.19,2.7,0,.85-.2,1.55-.61,2.1-.41.54-1.02.95-1.86,1.2.46.11.86.35,1.22.71.36.36.72.91,1.09,1.66l1.81,3.65h-3.53l-1.57-3.2c-.31-.64-.64-1.09-.96-1.31-.32-.24-.76-.36-1.3-.36h-.94M419.3,13.13l-16.16,59.41-2.32,8.51h63.25l-16.13,58.13h-63.34l-1.34,4.99-11.55,42.97-2.28,8.49h63.23l-16.13,58.13h-63.31l-1.36,4.95-17.58,63.89h-98.29l16.6-60.31,2.35-8.53h-78.67l-1.36,4.95-17.58,63.89H59.03l16.6-60.31,2.35-8.53H14.7l16.13-58.13h63.34l1.34-4.99,11.55-42.97,2.28-8.49h-63.23l16.13-58.13h63.33l1.35-4.97,17.13-62.95h98.3l-16.16,59.41-2.32,8.51h78.66l1.35-4.97,17.13-62.95h98.3M192.47,195.64h78.65l1.34-4.99,11.55-42.97,2.28-8.49h-78.65l-1.34,4.99-11.55,42.97-2.28,8.49M428.13,6.39h-112.27l-18.48,67.92h-64.69L251.17,6.39h-112.27l-18.48,67.92h-63.3l-19.87,71.62h63.3l-11.55,42.97H25.69l-19.87,71.62h63.3l-18.94,68.84h112.27l18.94-68.84h64.69l-18.94,68.84h112.27l18.94-68.84h63.3l19.87-71.62h-63.3l11.55-42.97h63.3l19.87-71.62h-63.3l18.48-67.92h0ZM277.5,145.92l-11.55,42.97h-64.68l11.55-42.97h64.68ZM446.47,59.52c-6.38,0-11.57-5.19-11.57-11.57s5.19-11.57,11.57-11.57,11.57,5.19,11.57,11.57-5.19,11.57-11.57,11.57ZM446.47,38.74c-5.08,0-9.22,4.13-9.22,9.22s4.13,9.22,9.22,9.22,9.22-4.13,9.22-9.22-4.13-9.22-9.22-9.22ZM445.84,47.02c.65,0,1.12-.13,1.4-.38.28-.23.43-.63.43-1.2s-.15-.94-.43-1.19c-.28-.23-.75-.35-1.4-.35h-1.32v3.11h1.32M444.52,49.16v4.58h-3.12v-12.11h4.77c1.6,0,2.76.27,3.5.81.75.53,1.12,1.37,1.12,2.54,0,.8-.19,1.46-.58,1.97-.39.5-.96.89-1.75,1.13.43.11.81.33,1.15.67.34.34.68.86,1.02,1.56l1.7,3.43h-3.32l-1.48-3.01c-.29-.6-.6-1.02-.9-1.23-.31-.22-.72-.34-1.22-.34h-.88M446.47,59.52c-6.38,0-11.57-5.19-11.57-11.57s5.19-11.57,11.57-11.57,11.57,5.19,11.57,11.57-5.19,11.57-11.57,11.57ZM446.47,38.74c-5.08,0-9.22,4.13-9.22,9.22s4.13,9.22,9.22,9.22,9.22-4.13,9.22-9.22-4.13-9.22-9.22-9.22ZM445.84,47.02c.65,0,1.12-.13,1.4-.38.28-.23.43-.63.43-1.2s-.15-.94-.43-1.19c-.28-.23-.75-.35-1.4-.35h-1.32v3.11h1.32M444.52,49.16v4.58h-3.12v-12.11h4.77c1.6,0,2.76.27,3.5.81.75.53,1.12,1.37,1.12,2.54,0,.8-.19,1.46-.58,1.97-.39.5-.96.89-1.75,1.13.43.11.81.33,1.15.67.34.34.68.86,1.02,1.56l1.7,3.43h-3.32l-1.48-3.01c-.29-.6-.6-1.02-.9-1.23-.31-.22-.72-.34-1.22-.34h-.88M446.47,59.52c-6.38,0-11.57-5.19-11.57-11.57s5.19-11.57,11.57-11.57,11.57,5.19,11.57,11.57-5.19,11.57-11.57,11.57ZM446.47,38.74c-5.08,0-9.22,4.13-9.22,9.22s4.13,9.22,9.22,9.22,9.22-4.13,9.22-9.22-4.13-9.22-9.22-9.22ZM445.84,47.02c.65,0,1.12-.13,1.4-.38.28-.23.43-.63.43-1.2s-.15-.94-.43-1.19c-.28-.23-.75-.35-1.4-.35h-1.32v3.11h1.32M444.52,49.16v4.58h-3.12v-12.11h4.77c1.6,0,2.76.27,3.5.81.75.53,1.12,1.37,1.12,2.54,0,.8-.19,1.46-.58,1.97-.39.5-.96.89-1.75,1.13.43.11.81.33,1.15.67.34.34.68.86,1.02,1.56l1.7,3.43h-3.32l-1.48-3.01c-.29-.6-.6-1.02-.9-1.23-.31-.22-.72-.34-1.22-.34h-.88M446.47,59.52c-6.38,0-11.57-5.19-11.57-11.57s5.19-11.57,11.57-11.57,11.57,5.19,11.57,11.57-5.19,11.57-11.57,11.57ZM446.47,38.74c-5.08,0-9.22,4.13-9.22,9.22s4.13,9.22,9.22,9.22,9.22-4.13,9.22-9.22-4.13-9.22-9.22-9.22ZM445.84,47.02c.65,0,1.12-.13,1.4-.38.28-.23.43-.63.43-1.2s-.15-.94-.43-1.19c-.28-.23-.75-.35-1.4-.35h-1.32v3.11h1.32M444.52,49.16v4.58h-3.12v-12.11h4.77c1.6,0,2.76.27,3.5.81.75.53,1.12,1.37,1.12,2.54,0,.8-.19,1.46-.58,1.97-.39.5-.96.89-1.75,1.13.43.11.81.33,1.15.67.34.34.68.86,1.02,1.56l1.7,3.43h-3.32l-1.48-3.01c-.29-.6-.6-1.02-.9-1.23-.31-.22-.72-.34-1.22-.34h-.88"/>
</svg>