<?xml version="1.0" encoding="UTF-8"?>
<svg id="Capa_1" xmlns="http://www.w3.org/2000/svg" version="1.1" viewBox="0 0 800 800">
  <!-- Generator: Adobe Illustrator 30.2.1, SVG Export Plug-In . SVG Version: 2.1.1 Build 1)  -->
  <defs>
    <style>
      .st0 {
        fill: #f4f4f4;
      }
    </style>
  </defs>
  <path class="st0" d="M664.4,134.1c-67.3-67.3-160.2-108.9-262.8-108.9C196.4,25.2,30,191.6,30,396.8s18.4,132.3,50.6,187.3l-1-1.7-52.7,192.5,197-51.7c51.3,28.5,112.5,45.2,177.5,45.2h.2c205.2,0,371.5-166.5,371.5-371.7s-41.6-195.4-108.7-262.7h0ZM401.6,705.7h-.1c-58,0-112.2-16-158.6-43.8l1.4.8-11.3-6.7-116.9,30.7,31.2-114-7.4-11.7c-29.6-46.5-47.2-103.3-47.2-164.1,0-170.6,138.3-308.8,308.8-308.8s308.8,138.3,308.8,308.8-138.3,308.8-308.8,308.8h0ZM570.9,474.4c-9.3-4.7-54.9-27.1-63.4-30.2-8.5-3.1-14.7-4.6-20.9,4.7-6.2,9.3-24,30.2-29.4,36.4-5.4,6.2-10.9,7-20.1,2.3-28.7-11.6-53.5-27.2-74.9-46.3l.3.2c-20-18.5-37.1-39.7-50.9-63l-.7-1.3c-5.4-9.3-.6-14.3,4-18.9,4.2-4.2,9.3-10.9,13.9-16.2,3.6-4.5,6.8-9.6,9.2-15.1v-.4c1.2-2.2,1.8-4.7,1.8-7.4s-.9-6.3-2.5-8.9h0c-2.3-4.6-20.9-50.3-28.6-68.9-7.6-18.1-15.2-15.6-20.9-15.9-5.4-.3-11.6-.3-17.8-.3-9.9.3-18.7,4.7-24.7,11.6h0c-20.1,19.1-32.5,45.9-32.5,75.6s0,1.3,0,2h0c3.3,36.6,17,69.5,38.2,96.3l-.3-.4c40.1,59.5,93.5,107,156.3,139.1l2.3,1.1c13.7,6.2,31.2,12.8,49.2,18.5l3.7,1c11,3.5,23.8,5.5,37,5.5s15-.7,22.2-1.9h-.8c26.7-5.5,48.9-21.6,62.4-43.6l.2-.4c4.1-9.1,6.5-19.8,6.5-31.1s-.4-9.1-1.2-13.5v.5c-2.2-3.9-8.4-6.2-17.7-10.9h0Z"/>
</svg>